<svg width="202" height="75" viewBox="0 0 202 75" fill="none" xmlns="http://www.w3.org/2000/svg">
<path d="M68.1159 25.5017V45.7216C68.1159 50.2491 68.6369 53.6337 70.8946 56.0953C73.2392 58.6448 76.2784 59.392 81.1412 59.392C85.6566 59.392 88.8261 58.6448 91.214 56.1832C93.5151 53.8096 94.123 50.6447 94.123 45.7216V25.5017H87.6104V45.8535C87.6104 48.9304 87.3933 50.7766 86.0908 51.9634C85.0053 52.9744 83.1384 53.1502 81.1412 53.1502C79.1005 53.1502 77.1902 52.9304 76.1047 51.9194C74.8022 50.6887 74.6285 48.8425 74.6285 45.8535V25.5017H68.1159Z" fill="#4E545D"/>
<path d="M106.725 58.6448V36.4908L119.794 58.6448H126.828V25.5017H120.402V47.6557L107.333 25.5017H100.299V58.6448H106.725Z" fill="#4E545D"/>
<path d="M139.587 58.6448V25.5017H133.075V58.6448H139.587Z" fill="#4E545D"/>
<path d="M160.642 58.6448V31.7874H171.627V25.5017H143.145V31.7874H154.13V58.6448H160.642Z" fill="#4E545D"/>
<path d="M190.19 58.6448V46.0293L202 25.5017H194.879L187.107 39.2161L179.336 25.5017H171.824L183.677 46.0293V58.6448H190.19Z" fill="#4E545D"/>
<path d="M6.04045 32.8764C6.04045 30.6979 7.34312 28.8274 9.20294 28.0196L25.5034 18.4927C26.3427 18.0022 27.2607 17.7745 28.1644 17.7844C29.068 17.7745 29.9859 18.0022 30.8252 18.4927L47.6594 28.3315C48.0402 28.5541 48.3828 28.8179 48.6849 29.1142C49.6992 30.0779 50.3328 31.4474 50.3328 32.9667V52.5893C50.3328 53.571 50.0682 54.4902 49.6073 55.2778C49.164 56.0768 48.5094 56.7694 47.6685 57.2608L30.8814 67.0721C29.8776 67.6588 28.7613 67.8695 27.6917 67.7474C26.9543 67.6829 26.2189 67.4577 25.5355 67.0584L8.70138 57.2196C8.57951 57.1483 8.46156 57.0729 8.34759 56.9935C7.32692 56.2938 6.62139 55.2803 6.28473 54.156C6.12606 53.6507 6.04045 53.1125 6.04045 52.554L6.04045 32.8764Z" fill="#024051"/>
<path d="M47.4679 28.2199L47.6588 28.3315C48.0396 28.5541 48.3822 28.8179 48.6843 29.1141C49.6986 30.0779 50.3322 31.4473 50.3322 32.9666V52.5893C50.3322 53.571 50.0676 54.4902 49.6068 55.2778C49.1634 56.0768 48.5088 56.7693 47.6679 57.2608L30.8808 67.0721C29.877 67.6587 28.7608 67.8695 27.6911 67.7474C26.9537 67.6828 26.2183 67.4577 25.535 67.0583L8.70079 57.2195C8.57892 57.1483 8.46097 57.0729 8.347 56.9935C7.32633 56.2937 6.6208 55.2802 6.28414 54.156C6.12548 53.6507 6.03986 53.1124 6.03986 52.554L6.03986 32.8764C6.03986 30.6979 7.34253 28.8274 9.20235 28.0195L25.5028 18.4927C26.3421 18.0021 27.2601 17.7744 28.1638 17.7844C29.0674 17.7745 29.9853 18.0022 30.8246 18.4927L31.9361 19.1423L35.0737 13.7079L31.5443 11.6412C30.4761 11.0157 29.3078 10.7253 28.1577 10.738C27.0076 10.7253 25.8392 11.0156 24.771 11.6412L4.02498 23.7895C1.65794 24.8196 1.52815e-06 27.2048 1.37583e-06 29.9828L0 55.075C0 55.7872 0.108963 56.4735 0.310902 57.1179C0.739377 58.5514 1.63733 59.8438 2.93635 60.7361C3.0814 60.8374 3.23153 60.9336 3.38664 61.0244L24.8119 73.5705C25.6816 74.0798 26.6176 74.3669 27.5561 74.4492C28.9175 74.6048 30.3382 74.3361 31.6157 73.5881L52.9812 61.077C54.0513 60.4503 54.8845 59.5672 55.4488 58.5483C56.0353 57.544 56.372 56.3719 56.372 55.12V30.0979C56.372 28.1605 55.5657 26.4142 54.2748 25.1853C53.8903 24.8075 53.4542 24.4711 52.9696 24.1873L52.681 23.9917L47.4679 28.2199Z" fill="#00AEDE"/>
<path d="M47.4679 28.2199L47.6588 28.3315C48.0397 28.5541 48.3823 28.8179 48.6844 29.1141C49.6987 30.0779 50.3322 31.4473 50.3322 32.9666V52.5893C50.3322 53.571 50.0677 54.4902 49.6068 55.2778C49.1634 56.0768 48.5088 56.7693 47.6679 57.2608L30.8808 67.0721C30.031 67.5688 29.1006 67.796 28.1861 67.7799V74.4906C29.35 74.5111 30.5342 74.2214 31.6157 73.5881L52.9812 61.077C54.0514 60.4503 54.8845 59.5672 55.4488 58.5483C56.0354 57.544 56.3721 56.3719 56.3721 55.12V30.0979C56.3721 28.1605 55.5657 26.4142 54.2748 25.1853C53.8903 24.8075 53.4543 24.4711 52.9696 24.1873L52.6811 23.9917L47.4679 28.2199Z" fill="#0291B7"/>
<path d="M35.0737 13.7079L31.5443 11.6412C30.4849 11.0208 29.327 10.7301 28.1861 10.7377V17.7842C29.0825 17.7782 29.9923 18.0062 30.8247 18.4927L35.0737 20.9718V13.7079Z" fill="#0291B7"/>
<path d="M51.7307 17.784H42.2787V10.483C42.2787 7.79505 42.8365 5.67375 43.9519 4.1191C45.0673 2.56445 46.9794 1.19141 49.6882 0L51.7307 3.87936C50.0649 4.66395 48.9132 5.44854 48.2759 6.23313C47.6385 7.00319 47.2836 7.91855 47.2112 8.9792H51.7307V17.784ZM62.7472 17.784H53.2952V10.483C53.2952 7.79505 53.8529 5.67375 54.9683 4.1191C56.0837 2.56445 57.9958 1.19141 60.7047 0L62.7472 3.87936C61.0813 4.66395 59.9297 5.44854 59.2923 6.23313C58.6549 7.00319 58.3 7.91855 58.2276 8.9792H62.7472V17.784Z" fill="#0291B7"/>
<path d="M51.7655 17.784H42.2787V10.483C42.2787 7.79505 42.8385 5.67375 43.958 4.1191C45.0775 2.56445 46.9967 1.19141 49.7155 0L51.7655 3.87936C50.0935 4.66395 48.9376 5.44854 48.2979 6.23313C47.6582 7.00319 47.302 7.91855 47.2293 8.9792H51.7655V17.784ZM62.8224 17.784H53.3357V10.483C53.3357 7.79505 53.8954 5.67375 55.0149 4.1191C56.1344 2.56445 58.0536 1.19141 60.7724 0L62.8224 3.87936C61.1504 4.66395 59.9945 5.44854 59.3548 6.23313C58.7151 7.00319 58.3589 7.91855 58.2862 8.9792H62.8224V17.784Z" fill="#0291B7"/>
<path d="M16.7775 33.7318V45.4679C16.7775 49.1904 17.2246 51.9732 19.1619 53.9971C21.1736 56.0932 24.0322 56.7076 28.2048 56.7076C32.0793 56.7076 35.0497 56.0932 37.0987 54.0694C39.0732 52.1178 39.5948 49.5157 39.5948 45.4679V33.7318L32.5021 28.8571V45.5764C32.5021 48.1062 32.5666 48.8908 31.4489 49.8666C30.5175 50.6978 29.9185 50.598 28.2048 50.598C26.4538 50.598 25.8175 50.6617 24.8862 49.8305C23.7685 48.8185 23.8702 48.0339 23.8702 45.5764V28.8571L16.7775 33.7318Z" fill="white"/>
</svg>
