<svg width="222" height="222" viewBox="0 0 222 222" fill="none" xmlns="http://www.w3.org/2000/svg">
<path d="M35 97.978C35 91.4857 38.8822 85.9112 44.4248 83.5038L93.0034 55.1118C95.5048 53.6499 98.2407 52.9713 100.934 53.0009C103.627 52.9714 106.362 53.6499 108.864 55.1118L159.033 84.4334C160.168 85.0967 161.189 85.8829 162.089 86.7659C165.112 89.6379 167 93.7192 167 98.247V156.726C167 159.652 166.212 162.392 164.838 164.739C163.517 167.12 161.566 169.184 159.06 170.648L109.031 199.888C106.039 201.637 102.713 202.265 99.525 201.901C97.3275 201.708 95.1357 201.037 93.0993 199.847L42.9301 170.526C42.5669 170.313 42.2154 170.088 41.8757 169.852C38.8339 167.766 36.7313 164.746 35.728 161.396C35.2551 159.89 35 158.286 35 156.621L35 97.978Z" fill="#024051"/>
<path d="M158.464 84.1008L159.033 84.4334C160.168 85.0967 161.189 85.8829 162.089 86.7659C165.112 89.6379 167 93.7192 167 98.247V156.726C167 159.652 166.212 162.392 164.838 164.739C163.517 167.12 161.566 169.184 159.06 170.648L109.031 199.888C106.039 201.637 102.713 202.265 99.525 201.901C97.3275 201.708 95.1357 201.037 93.0993 199.847L42.9301 170.526C42.5669 170.313 42.2154 170.088 41.8757 169.852C38.8339 167.766 36.7313 164.746 35.728 161.396C35.2551 159.89 35 158.286 35 156.621L35 97.978C35 91.4857 38.8822 85.9112 44.4248 83.5038L93.0034 55.1118C95.5048 53.6499 98.2407 52.9713 100.934 53.0009C103.627 52.9714 106.362 53.6499 108.864 55.1118L121.527 62.5V40.8522L111.008 34.6929C107.825 32.8288 104.343 31.9635 100.916 32.0012C97.4881 31.9634 94.0061 32.8287 90.8225 34.6929L28.9953 70.8974C21.941 73.9673 17 81.0757 17 89.3545L17 164.134C17 166.257 17.3247 168.302 17.9266 170.223C19.2035 174.495 21.8796 178.347 25.7509 181.006C26.1832 181.307 26.6306 181.594 27.0929 181.865L90.9445 219.255C93.5363 220.772 96.3258 221.628 99.1227 221.873C103.18 222.337 107.414 221.536 111.221 219.307L174.894 182.022C178.084 180.154 180.567 177.522 182.248 174.486C183.997 171.493 185 167.999 185 164.269V89.6976C185 83.9239 182.597 78.7195 178.75 75.0572C177.604 73.9313 176.304 72.9287 174.86 72.0829L174 71.5L158.464 84.1008Z" fill="#00AEDE"/>
<path d="M158.464 84.1008L159.033 84.4334C160.168 85.0967 161.189 85.8829 162.089 86.7659C165.112 89.6379 167 93.7192 167 98.247V156.726C167 159.652 166.212 162.392 164.838 164.739C163.517 167.12 161.566 169.184 159.06 170.648L109.031 199.888C106.498 201.368 103.725 202.046 101 201.998V221.997C104.469 222.058 107.998 221.195 111.221 219.307L174.894 182.022C178.084 180.154 180.567 177.522 182.248 174.486C183.997 171.493 185 167.999 185 164.269V89.6976C185 83.9239 182.597 78.7195 178.75 75.0572C177.604 73.9313 176.304 72.9287 174.86 72.0829L174 71.5L158.464 84.1008Z" fill="#0291B7"/>
<path d="M121.527 40.8522L111.008 34.6929C107.851 32.8441 104.4 31.9777 101 32.0004V53.0003C103.672 52.9825 106.383 53.6619 108.864 55.1118L121.527 62.5V40.8522Z" fill="#0291B7"/>
<path d="M171.169 53H143V31.2414C143 23.2308 144.662 16.9089 147.986 12.2757C151.31 7.64256 157.009 3.55065 165.082 0L171.169 11.5613C166.204 13.8995 162.772 16.2377 160.873 18.576C158.973 20.8709 157.915 23.5989 157.7 26.7598H171.169V53ZM204 53H175.831V31.2414C175.831 23.2308 177.493 16.9089 180.817 12.2757C184.142 7.64256 189.84 3.55065 197.913 0L204 11.5613C199.035 13.8995 195.603 16.2377 193.704 18.576C191.804 20.8709 190.747 23.5989 190.531 26.7598H204V53Z" fill="#0291B7"/>
<path d="M67 100.528V135.504C67 146.597 68.3323 154.891 74.1058 160.922C80.1013 167.169 88.6204 169 101.056 169C112.602 169 121.455 167.169 127.561 161.137C133.446 155.321 135 147.567 135 135.504V100.528L113.862 86V135.827C113.862 143.366 114.054 145.704 110.724 148.612C107.948 151.09 106.163 150.792 101.056 150.792C95.8372 150.792 93.941 150.982 91.1653 148.505C87.8345 145.489 88.1376 143.151 88.1376 135.827V86L67 100.528Z" fill="white"/>
</svg>
