<svg width="355" height="296" viewBox="0 0 355 296" fill="none" xmlns="http://www.w3.org/2000/svg">
<path d="M31 91.9284C31.0975 90.0652 31.9063 88.3104 33.2597 87.0261C34.613 85.7417 36.4076 85.0257 38.2733 85.0256C38.4947 85.0256 38.7133 85.0372 38.9296 85.0565C39.7804 83.5927 41.0004 82.3778 42.4677 81.5331C43.935 80.6884 45.5982 80.2434 47.2913 80.2426C48.9843 80.2418 50.648 80.6852 52.116 81.5285C53.5841 82.3719 54.8052 83.5856 55.6574 85.0486C55.8399 85.0349 56.0237 85.0256 56.2097 85.0256C58.0755 85.0257 59.8701 85.7417 61.2234 87.0261C62.5767 88.3104 63.3855 90.0652 63.483 91.9284" fill="white"/>
<path d="M32.517 91.3681C32.6145 89.5049 33.4233 87.7502 34.7766 86.4658C36.13 85.1814 37.9246 84.4654 39.7903 84.4653C40.0117 84.4653 40.2303 84.4769 40.4466 84.4962C41.2974 83.0325 42.5174 81.8176 43.9847 80.9728C45.4519 80.1281 47.1152 79.6831 48.8082 79.6823C50.5013 79.6815 52.1649 80.1249 53.633 80.9683C55.1011 81.8116 56.3222 83.0254 57.1744 84.4883C57.3569 84.4746 57.5407 84.4653 57.7267 84.4653C59.5924 84.4654 61.387 85.1814 62.7404 86.4658C64.0937 87.7502 64.9025 89.5049 65 91.3681" stroke="#DCDEE1" stroke-miterlimit="10"/>
<path d="M257 20.2461C257.098 18.3829 257.906 16.6281 259.26 15.3437C260.613 14.0594 262.408 13.3433 264.273 13.3433C264.495 13.3433 264.713 13.3548 264.93 13.3742C265.78 11.9104 267 10.6955 268.468 9.85079C269.935 9.00606 271.598 8.56107 273.291 8.56027C274.984 8.55947 276.648 9.00289 278.116 9.84623C279.584 10.6896 280.805 11.9033 281.657 13.3663C281.84 13.3526 282.024 13.3433 282.21 13.3433C284.075 13.3433 285.87 14.0594 287.223 15.3437C288.577 16.6281 289.386 18.3829 289.483 20.2461" fill="white"/>
<path d="M258.517 19.6858C258.614 17.8226 259.423 16.0678 260.777 14.7835C262.13 13.4991 263.925 12.7831 265.79 12.783C266.012 12.783 266.23 12.7946 266.447 12.8139C267.297 11.3502 268.517 10.1352 269.985 9.29052C271.452 8.44579 273.115 8.0008 274.808 8C276.501 7.9992 278.165 8.44261 279.633 9.28596C281.101 10.1293 282.322 11.3431 283.174 12.806C283.357 12.7923 283.541 12.783 283.727 12.783C285.592 12.7831 287.387 13.4991 288.74 14.7835C290.094 16.0678 290.902 17.8226 291 19.6858" stroke="#DCDEE1" stroke-miterlimit="10"/>
<path d="M64.6956 31C64.8628 27.8049 66.2498 24.7958 68.5705 22.5933C70.8912 20.3908 73.9687 19.1629 77.1682 19.1629C77.5478 19.1629 77.9226 19.1827 78.2936 19.2158C79.7526 16.7057 81.8446 14.6224 84.3608 13.1738C86.8769 11.7252 89.7291 10.9622 92.6324 10.9608C95.5357 10.9594 98.3886 11.7198 100.906 13.166C103.424 14.6122 105.518 16.6936 106.979 19.2023C107.292 19.1788 107.607 19.1629 107.926 19.1629C111.126 19.1629 114.203 20.3908 116.524 22.5933C118.844 24.7958 120.231 27.8049 120.399 31" fill="white"/>
<path d="M67.297 30.0392C67.4642 26.8441 68.8512 23.835 71.1719 21.6325C73.4926 19.4301 76.5701 18.2022 79.7695 18.2021C80.1491 18.2021 80.524 18.2219 80.8949 18.2551C82.354 15.745 84.446 13.6616 86.9621 12.213C89.4783 10.7645 92.3304 10.0014 95.2338 10C98.1371 9.99863 100.99 10.759 103.507 12.2052C106.025 13.6514 108.119 15.7328 109.58 18.2415C109.893 18.218 110.208 18.2021 110.527 18.2021C113.727 18.2022 116.804 19.4301 119.125 21.6325C121.446 23.835 122.833 26.8441 123 30.0392" stroke="#DCDEE1" stroke-miterlimit="10"/>
<path d="M284 105.009C284.143 102.269 285.333 99.6884 287.323 97.7996C289.313 95.9108 291.952 94.8578 294.696 94.8578C295.022 94.8578 295.343 94.8748 295.661 94.9032C296.912 92.7506 298.706 90.964 300.864 89.7217C303.022 88.4795 305.468 87.8251 307.958 87.8239C310.448 87.8228 312.894 88.4748 315.053 89.715C317.212 90.9552 319.008 92.7402 320.261 94.8916C320.529 94.8714 320.8 94.8578 321.073 94.8578C323.817 94.8578 326.456 95.9108 328.446 97.7996C330.436 99.6884 331.626 102.269 331.769 105.009" fill="white"/>
<path d="M286.231 104.185C286.374 101.445 287.564 98.8645 289.554 96.9757C291.544 95.0869 294.183 94.0339 296.927 94.0339C297.252 94.0339 297.574 94.0508 297.892 94.0793C299.143 91.9267 300.937 90.1401 303.095 88.8978C305.253 87.6556 307.699 87.0012 310.189 87C312.678 86.9988 315.125 87.6509 317.284 88.8911C319.443 90.1313 321.239 91.9163 322.492 94.0676C322.76 94.0475 323.03 94.0339 323.304 94.0339C326.048 94.0339 328.687 95.0869 330.677 96.9757C332.667 98.8645 333.857 101.445 334 104.185" stroke="#DCDEE1" stroke-miterlimit="10"/>
<path fill-rule="evenodd" clip-rule="evenodd" d="M299.132 266.979C288.616 259.862 275.135 257.356 262.789 260.221C250.443 263.086 239.41 271.284 233.044 282.32C230.485 278.792 227.056 275.959 223.186 273.995C223.457 273.254 223.695 272.501 223.87 271.73C225.606 264.073 222.334 255.51 215.949 251.003C211.42 247.807 205.527 246.802 200.144 247.999L191.442 191.716H180.01V237.905C172.94 238.992 168.014 247.43 170.504 254.184C165.585 254.907 161.121 258.249 159.014 262.785C158.329 264.262 158.228 267.382 158.817 270.916C150.231 271.032 141.726 275.317 136.645 282.32C130.279 271.284 119.246 263.086 106.9 260.221C94.5543 257.356 68.4541 258.557 57.9367 265.674C63.4717 249.803 49.7465 234.437 35.3707 237.905C0.527707 237.905 -23.3859 295.541 37.0035 295.716L169.663 295.541C170.54 295.788 176.161 295.541 177.153 295.541L204.894 295.547C204.894 295.547 300.027 295.499 332.686 295.716C365.344 295.933 359.383 247.999 332.686 245.5C305.988 243.001 302.122 252.395 299.132 266.979Z" fill="#DCDEE1"/>
<path fill-rule="evenodd" clip-rule="evenodd" d="M185.49 214.716C183.973 214.715 182.508 214.146 181.673 212.914C180.039 210.502 181.418 206.833 179.506 204.626C178.008 202.897 175.33 202.996 173.094 202.422C168.955 201.359 166.002 197.204 166 193.054C166 192.229 166.116 191.403 166.364 190.602C167.572 186.696 171.344 183.482 171.343 179.506C171.343 179.294 171.332 179.079 171.309 178.862C171.019 176.071 168.831 173.893 167.489 171.417C166.519 169.627 166.065 167.633 166.065 165.626C166.064 162.913 166.889 160.175 168.383 157.887H177.593C173.309 160.947 171.699 167.416 174.481 171.939C176.392 175.045 180.101 177.851 179.202 181.372C178.593 183.76 175.987 185.224 175.238 187.573C174.242 190.7 177.257 194.018 180.567 194.413C180.885 194.451 181.202 194.469 181.517 194.469C184.487 194.469 187.325 192.858 189.589 190.902C198.275 183.404 200.388 168.671 194.976 158.631L188.192 157.887H200.578L200.688 157.716C203.945 162.961 206.692 168.574 207.659 174.622C207.884 176.026 207.999 177.46 208 178.894C208.002 184.452 206.269 190.027 202.401 194.015C200.379 196.1 197.835 197.715 196.172 200.087C194.661 202.242 194.003 204.843 193.128 207.315C192.253 209.787 191.03 212.305 188.811 213.752C187.848 214.38 186.654 214.716 185.49 214.716Z" fill="#DCDEE1"/>
<path fill-rule="evenodd" clip-rule="evenodd" d="M178.502 157.716C172.711 160.076 170.172 167.51 173.446 172.52C175.447 175.58 179.328 178.345 178.388 181.813C177.75 184.165 175.022 185.608 174.239 187.922C173.196 191.003 176.352 194.272 179.816 194.661C183.28 195.05 186.637 193.333 189.259 191.202C198.35 183.815 200.561 169.3 194.897 159.408L178.502 157.716Z" fill="#C1C5CB"/>
<path d="M164.849 159.452C164.476 158.172 165.436 156.892 166.769 156.892H203.22C204.554 156.892 205.514 158.172 205.14 159.452L204.566 161.421C204.317 162.275 203.535 162.861 202.646 162.861H167.343C166.455 162.861 165.672 162.275 165.423 161.421L164.849 159.452Z" fill="#3F3D56"/>
<path fill-rule="evenodd" clip-rule="evenodd" d="M222.022 109.488C222.312 108.165 223.781 107.544 224.858 108.365C228.96 111.491 237.232 119.325 237.232 131.648C237.232 144.03 225.196 162.862 222.392 167.08C222.029 167.627 221.422 167.939 220.766 167.939H211.466C210.183 167.939 209.232 166.748 209.516 165.497L217.179 131.648L222.022 109.488Z" fill="#037493"/>
<path fill-rule="evenodd" clip-rule="evenodd" d="M147.21 109.488C146.921 108.165 145.451 107.544 144.374 108.365C140.272 111.491 132 119.325 132 131.648C132 144.03 144.037 162.862 146.841 167.08C147.204 167.627 147.811 167.939 148.467 167.939H157.766C159.049 167.939 160 166.748 159.717 165.497L152.053 131.648L147.21 109.488Z" fill="#037493"/>
<path fill-rule="evenodd" clip-rule="evenodd" d="M184.616 0C184.616 0 142.552 21.926 142.552 64.4507C142.552 100.819 158.163 158.635 158.163 158.635H211.069C211.069 158.635 226.68 100.819 226.68 64.4507C226.68 21.926 184.616 0 184.616 0Z" fill="#0291B7"/>
<path fill-rule="evenodd" clip-rule="evenodd" d="M170.066 10.2197C178.028 3.434 184.616 0 184.616 0C184.616 0 191.204 3.434 199.166 10.2197H170.066Z" fill="#3F3D56"/>
<path fill-rule="evenodd" clip-rule="evenodd" d="M207.992 63.5128C207.992 76.409 197.526 86.8639 184.616 86.8639C171.706 86.8639 161.241 76.409 161.241 63.5128C161.241 50.6165 171.706 40.1617 184.616 40.1617C197.526 40.1617 207.992 50.6165 207.992 63.5128Z" fill="#FFFFFE"/>
<path fill-rule="evenodd" clip-rule="evenodd" d="M201.192 75.5316L201.177 75.5529C200.899 75.9329 200.983 76.4661 201.364 76.743C201.744 77.0198 202.278 76.9364 202.555 76.5564L202.571 76.5334C202.849 76.1535 202.764 75.6202 202.383 75.3442C202.003 75.0674 201.469 75.1517 201.192 75.5316ZM190.962 82.9718L190.937 82.9794C190.49 83.1242 190.244 83.6047 190.389 84.0519C190.534 84.5 191.015 84.7453 191.464 84.5997L191.49 84.5911C191.938 84.4455 192.182 83.965 192.037 83.5178C191.891 83.0706 191.41 82.8261 190.962 82.9718ZM178.308 82.9837L178.284 82.976C177.836 82.8304 177.355 83.0757 177.21 83.5229C177.064 83.9701 177.31 84.4514 177.757 84.5962L177.784 84.6048C178.232 84.7496 178.712 84.5043 178.857 84.0562C179.002 83.609 178.757 83.1285 178.308 82.9837ZM168.064 75.5649L168.049 75.5444C167.772 75.1636 167.239 75.0802 166.858 75.357C166.477 75.6339 166.393 76.1671 166.671 76.5471L166.687 76.5692C166.965 76.9491 167.498 77.0326 167.878 76.7549C168.259 76.4781 168.342 75.9448 168.064 75.5649ZM164.136 63.5545V63.529C164.135 63.0579 163.753 62.6771 163.282 62.6771C162.811 62.678 162.429 63.0596 162.43 63.5298V63.5579C162.431 64.0282 162.813 64.4089 163.285 64.4081C163.755 64.4072 164.137 64.0248 164.136 63.5545ZM168.016 51.5272L168.031 51.5067C168.307 51.1259 168.223 50.5927 167.842 50.3167C167.461 50.0398 166.928 50.125 166.65 50.5058L166.634 50.5279C166.358 50.9096 166.443 51.442 166.825 51.718C167.206 51.994 167.739 51.9079 168.016 51.5272ZM178.231 44.0674L178.255 44.0589C178.703 43.9133 178.948 43.432 178.801 42.9847C178.655 42.5375 178.174 42.2939 177.726 42.4395L177.699 42.4481C177.253 42.5946 177.009 43.0759 177.155 43.5231C177.302 43.9703 177.784 44.214 178.231 44.0674ZM190.885 44.0291L190.908 44.0368C191.357 44.1816 191.837 43.9354 191.982 43.4882C192.126 43.0401 191.881 42.5597 191.432 42.4157L191.406 42.4072C190.957 42.2632 190.477 42.5094 190.333 42.9575C190.189 43.4056 190.436 43.8851 190.885 44.0291ZM201.143 51.4275L201.159 51.4479C201.437 51.8279 201.97 51.9105 202.351 51.6328C202.73 51.3551 202.814 50.8218 202.535 50.4419L202.519 50.4197C202.241 50.0407 201.707 49.958 201.327 50.2366C200.947 50.5151 200.865 51.0476 201.143 51.4275ZM205.096 63.4301V63.4557C205.098 63.9259 205.481 64.3059 205.952 64.305C206.422 64.3033 206.804 63.9217 206.802 63.4506V63.4233C206.8 62.9523 206.417 62.5723 205.946 62.5749C205.475 62.5766 205.095 62.9591 205.096 63.4301Z" fill="#C1C5CB"/>
<path fill-rule="evenodd" clip-rule="evenodd" d="M203.931 63.5127C203.931 74.1686 195.283 82.8073 184.616 82.8073C173.949 82.8073 165.301 74.1686 165.301 63.5127C165.301 52.8568 173.949 44.2182 184.616 44.2182C195.283 44.2182 203.931 52.8568 203.931 63.5127Z" fill="#DCDEE1"/>
<path fill-rule="evenodd" clip-rule="evenodd" d="M184.616 106.814C184.616 106.814 169.991 106.814 169.991 131.648C169.991 143.462 173.848 161.149 175.059 166.41C175.266 167.309 176.067 167.939 176.99 167.939H192.243C193.165 167.939 193.966 167.309 194.173 166.41C195.384 161.149 199.242 143.462 199.242 131.648C199.242 106.814 184.616 106.814 184.616 106.814Z" fill="#037493"/>
</svg>
