<svg width="602" height="222" viewBox="0 0 602 222" fill="none" xmlns="http://www.w3.org/2000/svg">
<g clip-path="url(#clip0_1_244)">
<path d="M203 76V136.259C203 149.752 204.553 159.839 211.281 167.175C218.268 174.773 227.326 177 241.818 177C255.275 177 264.72 174.773 271.837 167.437C278.695 160.363 280.506 150.931 280.506 136.259V76H261.097V136.652C261.097 145.822 260.45 151.324 256.569 154.861C253.334 157.874 247.77 158.398 241.818 158.398C235.736 158.398 230.043 157.743 226.808 154.73C222.927 151.062 222.409 145.56 222.409 136.652V76H203Z" fill="white"/>
<path d="M318.064 174.773V108.75L357.011 174.773H377.972V76H358.822V142.023L319.875 76H298.913V174.773H318.064Z" fill="white"/>
<path d="M415.999 174.773V76H396.59V174.773H415.999Z" fill="white"/>
<path d="M478.747 174.773V94.7328H511.484V76H426.602V94.7328H459.338V174.773H478.747Z" fill="white"/>
<path d="M566.805 174.773V137.176L602 76H580.78L557.618 116.872L534.457 76H512.072L547.396 137.176V174.773H566.805Z" fill="white"/>
<path d="M18 97.978C18 91.4857 21.8822 85.9112 27.4248 83.5038L76.0034 55.1118C78.5048 53.6499 81.2407 52.9713 83.9337 53.0009C86.6266 52.9714 89.3623 53.6499 91.8636 55.1118L142.033 84.4334C143.168 85.0967 144.189 85.8829 145.089 86.7659C148.112 89.6379 150 93.7192 150 98.247V156.726C150 159.652 149.212 162.392 147.838 164.739C146.517 167.12 144.566 169.184 142.06 170.648L92.0309 199.888C89.0395 201.637 85.7128 202.265 82.525 201.901C80.3275 201.708 78.1357 201.037 76.0993 199.847L25.9301 170.526C25.5669 170.313 25.2154 170.088 24.8757 169.852C21.8339 167.766 19.7313 164.746 18.728 161.396C18.2551 159.89 18 158.286 18 156.621L18 97.978Z" fill="#024051"/>
<path d="M141.464 84.1008L142.033 84.4334C143.168 85.0967 144.189 85.8829 145.089 86.7659C148.112 89.6379 150 93.7192 150 98.247V156.726C150 159.652 149.212 162.392 147.838 164.739C146.517 167.12 144.566 169.184 142.06 170.648L92.0309 199.888C89.0395 201.637 85.7128 202.265 82.525 201.901C80.3275 201.708 78.1357 201.037 76.0993 199.847L25.9301 170.526C25.5669 170.313 25.2154 170.088 24.8757 169.852C21.8339 167.766 19.7313 164.746 18.728 161.396C18.2551 159.89 18 158.286 18 156.621L18 97.978C18 91.4857 21.8822 85.9112 27.4248 83.5038L76.0034 55.1118C78.5048 53.6499 81.2407 52.9713 83.9337 53.0009C86.6266 52.9714 89.3623 53.6499 91.8636 55.1118L104.527 62.5V40.8522L94.0082 34.6929C90.8248 32.8288 87.343 31.9635 83.9156 32.0012C80.4881 31.9634 77.0061 32.8287 73.8225 34.6929L11.9953 70.8974C4.941 73.9673 4.55418e-06 81.0757 4.10024e-06 89.3545L0 164.134C0 166.257 0.324731 168.302 0.926551 170.223C2.20349 174.495 4.87956 178.347 8.75092 181.006C9.1832 181.307 9.63061 181.594 10.0929 181.865L73.9445 219.255C76.5363 220.772 79.3258 221.628 82.1227 221.873C86.18 222.337 90.4139 221.536 94.2211 219.307L157.894 182.022C161.084 180.154 163.567 177.522 165.248 174.486C166.997 171.493 168 167.999 168 164.269V89.6976C168 83.9239 165.597 78.7195 161.75 75.0572C160.604 73.9313 159.304 72.9287 157.86 72.0829L157 71.5L141.464 84.1008Z" fill="#00AEDE"/>
<path d="M141.464 84.1008L142.033 84.4334C143.168 85.0967 144.189 85.8829 145.089 86.7659C148.112 89.6379 150 93.7192 150 98.247V156.726C150 159.652 149.212 162.392 147.838 164.739C146.517 167.12 144.566 169.184 142.06 170.648L92.0309 199.888C89.4983 201.368 86.7255 202.046 84 201.998V221.997C87.4688 222.058 90.9979 221.195 94.2211 219.307L157.894 182.022C161.084 180.154 163.567 177.522 165.248 174.486C166.997 171.493 168 167.999 168 164.269V89.6976C168 83.9239 165.597 78.7195 161.75 75.0572C160.604 73.9313 159.304 72.9287 157.86 72.0829L157 71.5L141.464 84.1008Z" fill="#0291B7"/>
<path d="M104.527 40.8522L94.0082 34.6929C90.8509 32.8441 87.4001 31.9777 84 32.0004V53.0003C86.6715 52.9825 89.3829 53.6619 91.8636 55.1118L104.527 62.5V40.8522Z" fill="#0291B7"/>
<path d="M154.169 53H126V31.2414C126 23.2308 127.662 16.9089 130.986 12.2757C134.31 7.64256 140.009 3.55065 148.082 0L154.169 11.5613C149.204 13.8995 145.772 16.2377 143.873 18.576C141.973 20.8709 140.915 23.5989 140.7 26.7598H154.169V53ZM187 53H158.831V31.2414C158.831 23.2308 160.493 16.9089 163.817 12.2757C167.142 7.64256 172.84 3.55065 180.913 0L187 11.5613C182.035 13.8995 178.603 16.2377 176.704 18.576C174.804 20.8709 173.747 23.5989 173.531 26.7598H187V53Z" fill="#0291B7"/>
<path d="M50 100.528V135.504C50 146.597 51.3323 154.891 57.1058 160.922C63.1013 167.169 71.6204 169 84.0555 169C95.6024 169 104.455 167.169 110.561 161.137C116.446 155.321 118 147.567 118 135.504V100.528L96.8624 86V135.827C96.8624 143.366 97.0545 145.704 93.7236 148.612C90.948 151.09 89.1628 150.792 84.0555 150.792C78.8372 150.792 76.941 150.982 74.1653 148.505C70.8345 145.489 71.1376 143.151 71.1376 135.827V86L50 100.528Z" fill="white"/>
</g>
<defs>
<clipPath id="clip0_1_244">
<rect width="602" height="222" fill="white"/>
</clipPath>
</defs>
</svg>
