<svg width="300" height="300" viewBox="0 0 300 300" fill="none" xmlns="http://www.w3.org/2000/svg">
<path d="M74 136.978C74 130.486 77.8822 124.911 83.4248 122.504L132.003 94.1118C134.505 92.6499 137.241 91.9713 139.934 92.0009C142.627 91.9714 145.362 92.6499 147.864 94.1118L198.033 123.433C199.168 124.097 200.189 124.883 201.089 125.766C204.112 128.638 206 132.719 206 137.247V195.726C206 198.652 205.212 201.392 203.838 203.739C202.517 206.12 200.566 208.184 198.06 209.648L148.031 238.888C145.039 240.637 141.713 241.265 138.525 240.901C136.327 240.708 134.136 240.037 132.099 238.847L81.9301 209.526C81.5669 209.313 81.2154 209.088 80.8757 208.852C77.8339 206.766 75.7313 203.746 74.728 200.396C74.2551 198.89 74 197.286 74 195.621L74 136.978Z" fill="#024051"/>
<path d="M197.464 123.101L198.033 123.433C199.168 124.097 200.189 124.883 201.089 125.766C204.112 128.638 206 132.719 206 137.247V195.726C206 198.652 205.212 201.392 203.838 203.739C202.517 206.12 200.566 208.184 198.06 209.648L148.031 238.888C145.039 240.637 141.713 241.265 138.525 240.901C136.327 240.708 134.136 240.037 132.099 238.847L81.9301 209.526C81.5669 209.313 81.2154 209.088 80.8757 208.852C77.8339 206.766 75.7313 203.746 74.728 200.396C74.2551 198.89 74 197.286 74 195.621L74 136.978C74 130.486 77.8822 124.911 83.4248 122.504L132.003 94.1118C134.505 92.6499 137.241 91.9713 139.934 92.0009C142.627 91.9714 145.362 92.6499 147.864 94.1118L160.527 101.5V79.8522L150.008 73.6929C146.825 71.8288 143.343 70.9635 139.916 71.0012C136.488 70.9634 133.006 71.8287 129.823 73.6929L67.9953 109.897C60.941 112.967 56 120.076 56 128.355L56 203.134C56 205.257 56.3247 207.302 56.9266 209.223C58.2035 213.495 60.8796 217.347 64.7509 220.006C65.1832 220.307 65.6306 220.594 66.0929 220.865L129.945 258.255C132.536 259.772 135.326 260.628 138.123 260.873C142.18 261.337 146.414 260.536 150.221 258.307L213.894 221.022C217.084 219.154 219.567 216.522 221.248 213.486C222.997 210.493 224 206.999 224 203.269V128.698C224 122.924 221.597 117.72 217.75 114.057C216.604 112.931 215.304 111.929 213.86 111.083L213 110.5L197.464 123.101Z" fill="#00AEDE"/>
<path d="M197.464 123.101L198.033 123.433C199.168 124.097 200.189 124.883 201.089 125.766C204.112 128.638 206 132.719 206 137.247V195.726C206 198.652 205.212 201.392 203.838 203.739C202.517 206.12 200.566 208.184 198.06 209.648L148.031 238.888C145.498 240.368 142.725 241.046 140 240.998V260.997C143.469 261.058 146.998 260.195 150.221 258.307L213.894 221.022C217.084 219.154 219.567 216.522 221.248 213.486C222.997 210.493 224 206.999 224 203.269V128.698C224 122.924 221.597 117.72 217.75 114.057C216.604 112.931 215.304 111.929 213.86 111.083L213 110.5L197.464 123.101Z" fill="#0291B7"/>
<path d="M160.527 79.8522L150.008 73.6929C146.851 71.8441 143.4 70.9777 140 71.0004V92.0003C142.672 91.9825 145.383 92.6619 147.864 94.1118L160.527 101.5V79.8522Z" fill="#0291B7"/>
<path d="M210.169 92H182V70.2414C182 62.2308 183.662 55.9089 186.986 51.2757C190.31 46.6426 196.009 42.5507 204.082 39L210.169 50.5613C205.204 52.8995 201.772 55.2377 199.873 57.576C197.973 59.8709 196.915 62.5989 196.7 65.7598H210.169V92ZM243 92H214.831V70.2414C214.831 62.2308 216.493 55.9089 219.817 51.2757C223.142 46.6426 228.84 42.5507 236.913 39L243 50.5613C238.035 52.8995 234.603 55.2377 232.704 57.576C230.804 59.8709 229.747 62.5989 229.531 65.7598H243V92Z" fill="#0291B7"/>
<path d="M106 139.528V174.504C106 185.597 107.332 193.891 113.106 199.922C119.101 206.169 127.62 208 140.056 208C151.602 208 160.455 206.169 166.561 200.137C172.446 194.321 174 186.567 174 174.504V139.528L152.862 125V174.827C152.862 182.366 153.054 184.704 149.724 187.612C146.948 190.09 145.163 189.792 140.056 189.792C134.837 189.792 132.941 189.982 130.165 187.505C126.835 184.489 127.138 182.151 127.138 174.827V125L106 139.528Z" fill="white"/>
</svg>
