<svg width="682" height="302" viewBox="0 0 682 302" fill="none" xmlns="http://www.w3.org/2000/svg">
<path d="M243 116V176.259C243 189.752 244.553 199.839 251.281 207.175C258.268 214.773 267.326 217 281.818 217C295.275 217 304.72 214.773 311.837 207.437C318.695 200.363 320.506 190.931 320.506 176.259V116H301.097V176.652C301.097 185.822 300.45 191.324 296.569 194.861C293.334 197.874 287.77 198.398 281.818 198.398C275.736 198.398 270.043 197.743 266.808 194.73C262.927 191.062 262.409 185.56 262.409 176.652V116H243Z" fill="#4E545D"/>
<path d="M358.064 214.773V148.75L397.011 214.773H417.972V116H398.822V182.023L359.875 116H338.913V214.773H358.064Z" fill="#4E545D"/>
<path d="M455.999 214.773V116H436.59V214.773H455.999Z" fill="#4E545D"/>
<path d="M518.747 214.773V134.733H551.484V116H466.602V134.733H499.338V214.773H518.747Z" fill="#4E545D"/>
<path d="M606.805 214.773V177.176L642 116H620.78L597.618 156.872L574.457 116H552.072L587.396 177.176V214.773H606.805Z" fill="#4E545D"/>
<path d="M58 137.978C58 131.486 61.8822 125.911 67.4248 123.504L116.003 95.1118C118.505 93.6499 121.241 92.9713 123.934 93.0009C126.627 92.9714 129.362 93.6499 131.864 95.1118L182.033 124.433C183.168 125.097 184.189 125.883 185.089 126.766C188.112 129.638 190 133.719 190 138.247V196.726C190 199.652 189.212 202.392 187.838 204.739C186.517 207.12 184.566 209.184 182.06 210.648L132.031 239.888C129.039 241.637 125.713 242.265 122.525 241.901C120.327 241.708 118.136 241.037 116.099 239.847L65.9301 210.526C65.5669 210.313 65.2154 210.088 64.8757 209.852C61.8339 207.766 59.7313 204.746 58.728 201.396C58.2551 199.89 58 198.286 58 196.621L58 137.978Z" fill="#024051"/>
<path d="M181.464 124.101L182.033 124.433C183.168 125.097 184.189 125.883 185.089 126.766C188.112 129.638 190 133.719 190 138.247V196.726C190 199.652 189.212 202.392 187.838 204.739C186.517 207.12 184.566 209.184 182.06 210.648L132.031 239.888C129.039 241.637 125.713 242.265 122.525 241.901C120.327 241.708 118.136 241.037 116.099 239.847L65.9301 210.526C65.5669 210.313 65.2154 210.088 64.8757 209.852C61.8339 207.766 59.7313 204.746 58.728 201.396C58.2551 199.89 58 198.286 58 196.621L58 137.978C58 131.486 61.8822 125.911 67.4248 123.504L116.003 95.1118C118.505 93.6499 121.241 92.9713 123.934 93.0009C126.627 92.9714 129.362 93.6499 131.864 95.1118L144.527 102.5V80.8522L134.008 74.6929C130.825 72.8288 127.343 71.9635 123.916 72.0012C120.488 71.9634 117.006 72.8287 113.823 74.6929L51.9953 110.897C44.941 113.967 40 121.076 40 129.355L40 204.134C40 206.257 40.3247 208.302 40.9266 210.223C42.2035 214.495 44.8796 218.347 48.7509 221.006C49.1832 221.307 49.6306 221.594 50.0929 221.865L113.945 259.255C116.536 260.772 119.326 261.628 122.123 261.873C126.18 262.337 130.414 261.536 134.221 259.307L197.894 222.022C201.084 220.154 203.567 217.522 205.248 214.486C206.997 211.493 208 207.999 208 204.269V129.698C208 123.924 205.597 118.72 201.75 115.057C200.604 113.931 199.304 112.929 197.86 112.083L197 111.5L181.464 124.101Z" fill="#00AEDE"/>
<path d="M181.464 124.101L182.033 124.433C183.168 125.097 184.189 125.883 185.089 126.766C188.112 129.638 190 133.719 190 138.247V196.726C190 199.652 189.212 202.392 187.838 204.739C186.517 207.12 184.566 209.184 182.06 210.648L132.031 239.888C129.498 241.368 126.725 242.046 124 241.998V261.997C127.469 262.058 130.998 261.195 134.221 259.307L197.894 222.022C201.084 220.154 203.567 217.522 205.248 214.486C206.997 211.493 208 207.999 208 204.269V129.698C208 123.924 205.597 118.72 201.75 115.057C200.604 113.931 199.304 112.929 197.86 112.083L197 111.5L181.464 124.101Z" fill="#0291B7"/>
<path d="M144.527 80.8522L134.008 74.6929C130.851 72.8441 127.4 71.9777 124 72.0004V93.0003C126.672 92.9825 129.383 93.6619 131.864 95.1118L144.527 102.5V80.8522Z" fill="#0291B7"/>
<path d="M194.169 93H166V71.2414C166 63.2308 167.662 56.9089 170.986 52.2757C174.31 47.6426 180.009 43.5507 188.082 40L194.169 51.5613C189.204 53.8995 185.772 56.2377 183.873 58.576C181.973 60.8709 180.915 63.5989 180.7 66.7598H194.169V93ZM227 93H198.831V71.2414C198.831 63.2308 200.493 56.9089 203.817 52.2757C207.142 47.6426 212.84 43.5507 220.913 40L227 51.5613C222.035 53.8995 218.603 56.2377 216.704 58.576C214.804 60.8709 213.747 63.5989 213.531 66.7598H227V93Z" fill="#0291B7"/>
<path d="M90 140.528V175.504C90 186.597 91.3323 194.891 97.1058 200.922C103.101 207.169 111.62 209 124.056 209C135.602 209 144.455 207.169 150.561 201.137C156.446 195.321 158 187.567 158 175.504V140.528L136.862 126V175.827C136.862 183.366 137.054 185.704 133.724 188.612C130.948 191.09 129.163 190.792 124.056 190.792C118.837 190.792 116.941 190.982 114.165 188.505C110.835 185.489 111.138 183.151 111.138 175.827V126L90 140.528Z" fill="white"/>
</svg>
